<mxfile host="Electron" modified="2024-02-07T09:56:19.972Z" agent="Mozilla/5.0 (Windows NT 10.0; Win64; x64) AppleWebKit/537.36 (KHTML, like Gecko) draw.io/22.1.2 Chrome/114.0.5735.289 Electron/25.9.4 Safari/537.36" etag="S0MbjzzQx5ki3MjQL0Kk" version="22.1.2" type="device">
  <diagram name="Page-1" id="GXH7HksNQJkOH-qJe8ID">
    <mxGraphModel dx="780" dy="496" grid="1" gridSize="10" guides="1" tooltips="1" connect="1" arrows="1" fold="1" page="1" pageScale="1" pageWidth="850" pageHeight="1100" math="0" shadow="0">
      <root>
        <mxCell id="0" />
        <mxCell id="1" parent="0" />
        <mxCell id="y1fXWGU0vIESQ1dCH3lC-1" value="us-east-1Region" style="points=[[0,0],[0.25,0],[0.5,0],[0.75,0],[1,0],[1,0.25],[1,0.5],[1,0.75],[1,1],[0.75,1],[0.5,1],[0.25,1],[0,1],[0,0.75],[0,0.5],[0,0.25]];outlineConnect=0;gradientColor=none;html=1;whiteSpace=wrap;fontSize=12;fontStyle=0;container=1;pointerEvents=0;collapsible=0;recursiveResize=0;shape=mxgraph.aws4.group;grIcon=mxgraph.aws4.group_region;strokeColor=#00A4A6;fillColor=none;verticalAlign=top;align=left;spacingLeft=30;fontColor=#147EBA;dashed=1;" parent="1" vertex="1">
          <mxGeometry x="20" y="10" width="1090" height="450" as="geometry" />
        </mxCell>
        <mxCell id="y1fXWGU0vIESQ1dCH3lC-2" value="DEV-vpc-1" style="points=[[0,0],[0.25,0],[0.5,0],[0.75,0],[1,0],[1,0.25],[1,0.5],[1,0.75],[1,1],[0.75,1],[0.5,1],[0.25,1],[0,1],[0,0.75],[0,0.5],[0,0.25]];outlineConnect=0;gradientColor=none;html=1;whiteSpace=wrap;fontSize=12;fontStyle=0;container=1;pointerEvents=0;collapsible=0;recursiveResize=0;shape=mxgraph.aws4.group;grIcon=mxgraph.aws4.group_vpc2;strokeColor=#8C4FFF;fillColor=none;verticalAlign=top;align=left;spacingLeft=30;fontColor=#AAB7B8;dashed=0;" parent="y1fXWGU0vIESQ1dCH3lC-1" vertex="1">
          <mxGeometry x="20" y="150" width="330" height="280" as="geometry" />
        </mxCell>
        <mxCell id="y1fXWGU0vIESQ1dCH3lC-6" value="test-subnet-1&lt;br&gt;12.0.1.0/16" style="points=[[0,0],[0.25,0],[0.5,0],[0.75,0],[1,0],[1,0.25],[1,0.5],[1,0.75],[1,1],[0.75,1],[0.5,1],[0.25,1],[0,1],[0,0.75],[0,0.5],[0,0.25]];outlineConnect=0;gradientColor=none;html=1;whiteSpace=wrap;fontSize=12;fontStyle=0;container=1;pointerEvents=0;collapsible=0;recursiveResize=0;shape=mxgraph.aws4.group;grIcon=mxgraph.aws4.group_security_group;grStroke=0;strokeColor=#7AA116;fillColor=#F2F6E8;verticalAlign=top;align=left;spacingLeft=30;fontColor=#248814;dashed=0;" parent="y1fXWGU0vIESQ1dCH3lC-2" vertex="1">
          <mxGeometry x="20" y="70" width="200" height="180" as="geometry" />
        </mxCell>
        <mxCell id="y1fXWGU0vIESQ1dCH3lC-39" value="" style="sketch=0;points=[[0,0,0],[0.25,0,0],[0.5,0,0],[0.75,0,0],[1,0,0],[0,1,0],[0.25,1,0],[0.5,1,0],[0.75,1,0],[1,1,0],[0,0.25,0],[0,0.5,0],[0,0.75,0],[1,0.25,0],[1,0.5,0],[1,0.75,0]];outlineConnect=0;fontColor=#232F3E;fillColor=#ED7100;strokeColor=#ffffff;dashed=0;verticalLabelPosition=bottom;verticalAlign=top;align=center;html=1;fontSize=12;fontStyle=0;aspect=fixed;shape=mxgraph.aws4.resourceIcon;resIcon=mxgraph.aws4.ec2;" parent="y1fXWGU0vIESQ1dCH3lC-6" vertex="1">
          <mxGeometry x="61" y="51" width="78" height="78" as="geometry" />
        </mxCell>
        <mxCell id="y1fXWGU0vIESQ1dCH3lC-7" value="test-IGW-subnet-1" style="outlineConnect=0;dashed=0;verticalLabelPosition=bottom;verticalAlign=top;align=center;html=1;shape=mxgraph.aws3.internet_gateway;fillColor=#F58534;gradientColor=none;" parent="y1fXWGU0vIESQ1dCH3lC-2" vertex="1">
          <mxGeometry x="140" y="-20" width="54" height="50" as="geometry" />
        </mxCell>
        <mxCell id="y1fXWGU0vIESQ1dCH3lC-9" value="" style="sketch=0;outlineConnect=0;fontColor=#232F3E;gradientColor=none;fillColor=#8C4FFF;strokeColor=none;dashed=0;verticalLabelPosition=bottom;verticalAlign=top;align=center;html=1;fontSize=12;fontStyle=0;aspect=fixed;pointerEvents=1;shape=mxgraph.aws4.route_table;" parent="y1fXWGU0vIESQ1dCH3lC-2" vertex="1">
          <mxGeometry x="240" y="70" width="78" height="76" as="geometry" />
        </mxCell>
        <mxCell id="y1fXWGU0vIESQ1dCH3lC-43" value="12.0.0.0/16" style="text;html=1;align=center;verticalAlign=middle;resizable=0;points=[];autosize=1;strokeColor=none;fillColor=none;" parent="y1fXWGU0vIESQ1dCH3lC-2" vertex="1">
          <mxGeometry x="20" y="20" width="80" height="30" as="geometry" />
        </mxCell>
        <mxCell id="y1fXWGU0vIESQ1dCH3lC-5" value="&lt;font color=&quot;#ffffff&quot;&gt;test-TG-1&lt;/font&gt;" style="sketch=0;points=[[0,0,0],[0.25,0,0],[0.5,0,0],[0.75,0,0],[1,0,0],[0,1,0],[0.25,1,0],[0.5,1,0],[0.75,1,0],[1,1,0],[0,0.25,0],[0,0.5,0],[0,0.75,0],[1,0.25,0],[1,0.5,0],[1,0.75,0]];outlineConnect=0;fontColor=#232F3E;fillColor=#8C4FFF;strokeColor=#ffffff;dashed=0;verticalLabelPosition=bottom;verticalAlign=top;align=center;html=1;fontSize=12;fontStyle=0;aspect=fixed;shape=mxgraph.aws4.resourceIcon;resIcon=mxgraph.aws4.transit_gateway;" parent="y1fXWGU0vIESQ1dCH3lC-1" vertex="1">
          <mxGeometry x="510" y="10" width="78" height="78" as="geometry" />
        </mxCell>
        <mxCell id="y1fXWGU0vIESQ1dCH3lC-10" value="DEV-vpc-2" style="points=[[0,0],[0.25,0],[0.5,0],[0.75,0],[1,0],[1,0.25],[1,0.5],[1,0.75],[1,1],[0.75,1],[0.5,1],[0.25,1],[0,1],[0,0.75],[0,0.5],[0,0.25]];outlineConnect=0;gradientColor=none;html=1;whiteSpace=wrap;fontSize=12;fontStyle=0;container=1;pointerEvents=0;collapsible=0;recursiveResize=0;shape=mxgraph.aws4.group;grIcon=mxgraph.aws4.group_vpc2;strokeColor=#8C4FFF;fillColor=none;verticalAlign=top;align=left;spacingLeft=30;fontColor=#AAB7B8;dashed=0;" parent="y1fXWGU0vIESQ1dCH3lC-1" vertex="1">
          <mxGeometry x="380" y="150" width="330" height="280" as="geometry" />
        </mxCell>
        <mxCell id="y1fXWGU0vIESQ1dCH3lC-11" value="test-subnet-2&lt;br&gt;13.0.1.0/16" style="points=[[0,0],[0.25,0],[0.5,0],[0.75,0],[1,0],[1,0.25],[1,0.5],[1,0.75],[1,1],[0.75,1],[0.5,1],[0.25,1],[0,1],[0,0.75],[0,0.5],[0,0.25]];outlineConnect=0;gradientColor=none;html=1;whiteSpace=wrap;fontSize=12;fontStyle=0;container=1;pointerEvents=0;collapsible=0;recursiveResize=0;shape=mxgraph.aws4.group;grIcon=mxgraph.aws4.group_security_group;grStroke=0;strokeColor=#7AA116;fillColor=#F2F6E8;verticalAlign=top;align=left;spacingLeft=30;fontColor=#248814;dashed=0;" parent="y1fXWGU0vIESQ1dCH3lC-10" vertex="1">
          <mxGeometry x="20" y="70" width="200" height="180" as="geometry" />
        </mxCell>
        <mxCell id="y1fXWGU0vIESQ1dCH3lC-41" value="" style="sketch=0;points=[[0,0,0],[0.25,0,0],[0.5,0,0],[0.75,0,0],[1,0,0],[0,1,0],[0.25,1,0],[0.5,1,0],[0.75,1,0],[1,1,0],[0,0.25,0],[0,0.5,0],[0,0.75,0],[1,0.25,0],[1,0.5,0],[1,0.75,0]];outlineConnect=0;fontColor=#232F3E;fillColor=#ED7100;strokeColor=#ffffff;dashed=0;verticalLabelPosition=bottom;verticalAlign=top;align=center;html=1;fontSize=12;fontStyle=0;aspect=fixed;shape=mxgraph.aws4.resourceIcon;resIcon=mxgraph.aws4.ec2;" parent="y1fXWGU0vIESQ1dCH3lC-11" vertex="1">
          <mxGeometry x="64" y="51" width="78" height="78" as="geometry" />
        </mxCell>
        <mxCell id="y1fXWGU0vIESQ1dCH3lC-12" value="test-IGW-subnet-2" style="outlineConnect=0;dashed=0;verticalLabelPosition=bottom;verticalAlign=top;align=center;html=1;shape=mxgraph.aws3.internet_gateway;fillColor=#F58534;gradientColor=none;" parent="y1fXWGU0vIESQ1dCH3lC-10" vertex="1">
          <mxGeometry x="220" y="-20" width="54" height="50" as="geometry" />
        </mxCell>
        <mxCell id="y1fXWGU0vIESQ1dCH3lC-13" value="" style="sketch=0;outlineConnect=0;fontColor=#232F3E;gradientColor=none;fillColor=#8C4FFF;strokeColor=none;dashed=0;verticalLabelPosition=bottom;verticalAlign=top;align=center;html=1;fontSize=12;fontStyle=0;aspect=fixed;pointerEvents=1;shape=mxgraph.aws4.route_table;" parent="y1fXWGU0vIESQ1dCH3lC-10" vertex="1">
          <mxGeometry x="240" y="70" width="78" height="76" as="geometry" />
        </mxCell>
        <mxCell id="y1fXWGU0vIESQ1dCH3lC-44" value="13.0.0.0/16" style="text;html=1;align=center;verticalAlign=middle;resizable=0;points=[];autosize=1;strokeColor=none;fillColor=none;" parent="y1fXWGU0vIESQ1dCH3lC-10" vertex="1">
          <mxGeometry x="13" y="20" width="80" height="30" as="geometry" />
        </mxCell>
        <mxCell id="y1fXWGU0vIESQ1dCH3lC-14" value="DEV-vpc-3" style="points=[[0,0],[0.25,0],[0.5,0],[0.75,0],[1,0],[1,0.25],[1,0.5],[1,0.75],[1,1],[0.75,1],[0.5,1],[0.25,1],[0,1],[0,0.75],[0,0.5],[0,0.25]];outlineConnect=0;gradientColor=none;html=1;whiteSpace=wrap;fontSize=12;fontStyle=0;container=1;pointerEvents=0;collapsible=0;recursiveResize=0;shape=mxgraph.aws4.group;grIcon=mxgraph.aws4.group_vpc2;strokeColor=#8C4FFF;fillColor=none;verticalAlign=top;align=left;spacingLeft=30;fontColor=#AAB7B8;dashed=0;" parent="y1fXWGU0vIESQ1dCH3lC-1" vertex="1">
          <mxGeometry x="740" y="150" width="330" height="280" as="geometry" />
        </mxCell>
        <mxCell id="y1fXWGU0vIESQ1dCH3lC-15" value="test-subnet-3&lt;br&gt;14.0.1.0/16" style="points=[[0,0],[0.25,0],[0.5,0],[0.75,0],[1,0],[1,0.25],[1,0.5],[1,0.75],[1,1],[0.75,1],[0.5,1],[0.25,1],[0,1],[0,0.75],[0,0.5],[0,0.25]];outlineConnect=0;gradientColor=none;html=1;whiteSpace=wrap;fontSize=12;fontStyle=0;container=1;pointerEvents=0;collapsible=0;recursiveResize=0;shape=mxgraph.aws4.group;grIcon=mxgraph.aws4.group_security_group;grStroke=0;strokeColor=#7AA116;fillColor=#F2F6E8;verticalAlign=top;align=left;spacingLeft=30;fontColor=#248814;dashed=0;" parent="y1fXWGU0vIESQ1dCH3lC-14" vertex="1">
          <mxGeometry x="20" y="70" width="200" height="180" as="geometry" />
        </mxCell>
        <mxCell id="y1fXWGU0vIESQ1dCH3lC-42" value="" style="sketch=0;points=[[0,0,0],[0.25,0,0],[0.5,0,0],[0.75,0,0],[1,0,0],[0,1,0],[0.25,1,0],[0.5,1,0],[0.75,1,0],[1,1,0],[0,0.25,0],[0,0.5,0],[0,0.75,0],[1,0.25,0],[1,0.5,0],[1,0.75,0]];outlineConnect=0;fontColor=#232F3E;fillColor=#ED7100;strokeColor=#ffffff;dashed=0;verticalLabelPosition=bottom;verticalAlign=top;align=center;html=1;fontSize=12;fontStyle=0;aspect=fixed;shape=mxgraph.aws4.resourceIcon;resIcon=mxgraph.aws4.ec2;" parent="y1fXWGU0vIESQ1dCH3lC-15" vertex="1">
          <mxGeometry x="61" y="51" width="78" height="78" as="geometry" />
        </mxCell>
        <mxCell id="y1fXWGU0vIESQ1dCH3lC-16" value="test-IGW-subnet-3" style="outlineConnect=0;dashed=0;verticalLabelPosition=bottom;verticalAlign=top;align=center;html=1;shape=mxgraph.aws3.internet_gateway;fillColor=#F58534;gradientColor=none;" parent="y1fXWGU0vIESQ1dCH3lC-14" vertex="1">
          <mxGeometry x="151" y="-20" width="54" height="50" as="geometry" />
        </mxCell>
        <mxCell id="y1fXWGU0vIESQ1dCH3lC-17" value="" style="sketch=0;outlineConnect=0;fontColor=#232F3E;gradientColor=none;fillColor=#8C4FFF;strokeColor=none;dashed=0;verticalLabelPosition=bottom;verticalAlign=top;align=center;html=1;fontSize=12;fontStyle=0;aspect=fixed;pointerEvents=1;shape=mxgraph.aws4.route_table;" parent="y1fXWGU0vIESQ1dCH3lC-14" vertex="1">
          <mxGeometry x="240" y="70" width="78" height="76" as="geometry" />
        </mxCell>
        <mxCell id="y1fXWGU0vIESQ1dCH3lC-45" value="14.0.0.0/16" style="text;html=1;align=center;verticalAlign=middle;resizable=0;points=[];autosize=1;strokeColor=none;fillColor=none;" parent="y1fXWGU0vIESQ1dCH3lC-14" vertex="1">
          <mxGeometry x="20" y="30" width="80" height="30" as="geometry" />
        </mxCell>
        <mxCell id="y1fXWGU0vIESQ1dCH3lC-31" value="" style="endArrow=classic;startArrow=classic;html=1;rounded=0;" parent="y1fXWGU0vIESQ1dCH3lC-1" edge="1">
          <mxGeometry width="50" height="50" relative="1" as="geometry">
            <mxPoint x="264" y="138" as="sourcePoint" />
            <mxPoint x="490" y="40" as="targetPoint" />
          </mxGeometry>
        </mxCell>
        <mxCell id="y1fXWGU0vIESQ1dCH3lC-33" value="" style="endArrow=classic;startArrow=classic;html=1;rounded=0;entryX=1;entryY=0.25;entryDx=0;entryDy=0;entryPerimeter=0;" parent="y1fXWGU0vIESQ1dCH3lC-1" edge="1">
          <mxGeometry width="50" height="50" relative="1" as="geometry">
            <mxPoint x="805" y="148" as="sourcePoint" />
            <mxPoint x="593.0000000000002" y="39.5" as="targetPoint" />
          </mxGeometry>
        </mxCell>
        <mxCell id="y1fXWGU0vIESQ1dCH3lC-32" value="" style="endArrow=classic;startArrow=classic;html=1;rounded=0;" parent="y1fXWGU0vIESQ1dCH3lC-1" source="y1fXWGU0vIESQ1dCH3lC-10" edge="1">
          <mxGeometry width="50" height="50" relative="1" as="geometry">
            <mxPoint x="500" y="138" as="sourcePoint" />
            <mxPoint x="550" y="88" as="targetPoint" />
          </mxGeometry>
        </mxCell>
        <mxCell id="y1fXWGU0vIESQ1dCH3lC-35" value="Attachment" style="text;html=1;align=center;verticalAlign=middle;resizable=0;points=[];autosize=1;strokeColor=none;fillColor=none;rotation=-25;" parent="y1fXWGU0vIESQ1dCH3lC-1" vertex="1">
          <mxGeometry x="325" y="58" width="80" height="30" as="geometry" />
        </mxCell>
        <mxCell id="y1fXWGU0vIESQ1dCH3lC-36" value="Attachment" style="text;html=1;align=center;verticalAlign=middle;resizable=0;points=[];autosize=1;strokeColor=none;fillColor=none;rotation=30;" parent="y1fXWGU0vIESQ1dCH3lC-1" vertex="1">
          <mxGeometry x="660" y="58" width="80" height="30" as="geometry" />
        </mxCell>
        <mxCell id="y1fXWGU0vIESQ1dCH3lC-37" value="Attachment" style="text;html=1;align=center;verticalAlign=middle;resizable=0;points=[];autosize=1;strokeColor=none;fillColor=none;rotation=0;" parent="y1fXWGU0vIESQ1dCH3lC-1" vertex="1">
          <mxGeometry x="510" y="100" width="80" height="30" as="geometry" />
        </mxCell>
      </root>
    </mxGraphModel>
  </diagram>
</mxfile>
